<?xml version="1.0" encoding="UTF-8" standalone="no"?>
<svg
   xmlnsDc="http://purl.org/dc/elements/1.1/"
   xmlnsCc="http://creativecommons.org/ns#"
   xmlnsRdf="http://www.w3.org/1999/02/22-rdf-syntax-ns#"
   xmlnsSvg="http://www.w3.org/2000/svg"
   xmlns="http://www.w3.org/2000/svg"
   xmlnsSodipodi="http://sodipodi.sourceforge.net/DTD/sodipodi-0.dtd"
   xmlnsInkscape="http://www.inkscape.org/namespaces/inkscape"
   version="1.1"
   id="svg2"
   xmlSpace="preserve"
   width="372"
   height="256"
   viewBox="0 0 372 256"
   sodipodiDocname="mark-white.eps"><metadata
     id="metadata8"><rdfRDF><ccWork
         rdfAbout=""><dcFormat>image/svg+xml</dcFormat><dcType
           rdfResource="http://purl.org/dc/dcmitype/StillImage" /></ccWork></rdfRDF></metadata><defs
     id="defs6"><clipPath
       clipPathUnits="userSpaceOnUse"
       id="clipPath20"><path
         d="m 38.4805,1031.71 c 0,0 62.9805,10.39 88.9295,-16.73 25.977,-27.105 8.953,-83.191 -25.512,-84.125 -34.4683,-0.925 -66.3238,-7.292 -88.941,16.727 -22.61716,24.02 -16.54684,72.278 25.5235,84.128 M 722.145,648.953 c -6.067,-0.64 -12.489,2.145 -19.063,6.836 -45.152,62.93 -61.465,278.106 -82.191,290.922 -21.493,13.293 -99.328,-119.223 -254.141,-104.977 -64.738,5.969 -130.621,47.907 -169.414,76.954 3.605,48.894 4.234,163.062 100.656,125.942 58.574,-22.55 158.883,-84.474 246.973,26.73 97.402,122.98 151.117,87.26 183.34,60.52 32.207,-26.73 10.746,-165.759 58.789,-126.9 48.043,38.87 242.036,280.2 242.036,280.2 0,0 150.19,151.47 173.19,-7.77 23,-159.23 120.93,-335.691 146.88,-330.668 25.97,5.039 328.09,619.068 371.36,658.678 43.27,39.63 188.93,34.42 182.01,-67.21 -6.93,-101.62 -21.75,-733.3 -21.75,-733.3 0,0 -17.09,-178 10.74,-82.871 11.54,39.441 23.94,75.016 39.44,116.531 74.56,238.71 201.57,646.5 264.86,856.62 14.55,50.28 27.08,93.44 36.8,126.61 l 0.02,0.09 c 3.78,15.38 7.53,27.56 11.31,38.43 5.29,17.81 8.87,29.59 9.97,32.7 2.83,7.85 10.76,13.85 21.9,18.25 11.19,7.05 23.19,7.41 36.8,7.76 35.12,3.15 80.29,-1.43 120.91,-13 11.83,-0.47 24.7,-4.26 36.87,-13 v -0.01 c 0,0 0.73,-0.45 1.76,-1.12 0.27,-0.21 0.56,-0.36 0.85,-0.59 2.54,-1.77 6.66,-5.25 11.43,-10.99 0.14,-0.18 0.29,-0.41 0.46,-0.58 1.97,-2.42 3.96,-5.28 5.98,-8.54 22.69,-33.28 36.63,-94.63 22.65,-203.42 -34.83,-271.49 -61.8,-829.987 -61.8,-829.987 0,0 -5.36,-26.715 50.6,90.91 1.95,4.098 4.45,7.629 6.74,11.387 3.03,1.996 6.42,4.855 10.62,9.91 34.57,41.223 127.5,65.43 191.95,64.94 27.16,-3.29 49.91,-10.12 63.5,-18.706 25.43,-38.714 10.42,-181.582 10.42,-181.582 -53.61,-4.961 -155.81,-33.808 -192.03,-39.136 -36.25,-5.36 -91.28,-240.629 -167.78,-216.563 -76.51,24.055 -246.99,130.996 -246.99,145.699 0,12.805 13.4,169.098 16.89,209.438 0.26,2.785 0.46,5.375 0.67,7.945 0.08,0.746 0.16,1.613 0.16,1.613 l -0.02,-0.043 c 2.48,31.77 0.27,45.653 -14.4,13.942 C 2169.47,910.27 2114.55,735.754 2053.32,545.68 2046.85,529.07 1931.12,178.824 1915.93,136.125 1897.8,86.5859 1882.56,48.668 1872.04,29.0586 1856.02,7.35156 1834.44,-6.24219 1804.31,2.875 c -75.16,22.7148 -170.35,126.582 -171.23,152.352 -1.81,145.351 7.06,926.863 -28.17,861.733 -36.17,-66.776 -317.37,-530.19 -317.37,-530.19 -4.71,-0.809 -8.19,-0.657 -12.34,-1.036 -19.91,2.176 -50.76,8.645 -59.29,27.704 -0.47,1.128 -1.09,2.148 -1.5,3.32 -0.41,1.187 -0.87,2.512 -1.57,4.672 -3.82,12.758 -5.38,26.609 -8.75,37.953 -12.58,42.453 -32.71,103.301 -53.83,165.195 -32.36,105.543 -65.73,213.504 -71.22,225.422 -10.73,23.324 -26.37,13.488 -40.4,0.016 C 975.875,896.781 842.551,661.801 722.145,648.953"
         clip-rule="evenodd"
         id="path18" /></clipPath><clipPath
       clipPathUnits="userSpaceOnUse"
       id="clipPath26"><path
         d="M 0,0 H 2790 V 1920 H 0 Z"
         id="path24" /></clipPath></defs><sodipodiNamedview
     pagecolor="#ffffff"
     bordercolor="#666666"
     borderopacity="1"
     objecttolerance="10"
     gridtolerance="10"
     guidetolerance="10"
     inkscapePageopacity="0"
     inkscapePageshadow="2"
     inkscapeWindow-width="640"
     inkscapeWindow-height="480"
     id="namedview4" /><g
     id="g10"
     inkscapeGroupmode="layer"
     inkscapeLabel="ink_ext_XXXXXX"
     transform="matrix(1.3333333,0,0,-1.3333333,0,256)"><g
       id="g12"
       transform="scale(0.1)"><g
         id="g14"><g
           id="g16"
           clip-path="url(#clipPath20)"><g
             id="g22"
             clip-path="url(#clipPath26)"><path
               d="M -50,-50 H 2840 V 1970 H -50 Z"
               style="fill:#ffffff;fill-opacity:1;fill-rule:nonzero;stroke:none"
               id="path28" /></g></g></g></g></g></svg>
